<svg width="39" height="38" viewBox="0 0 39 38" fill="none" xmlns="http://www.w3.org/2000/svg">
<path d="M19.2 13.7529L26.4696 10.8489L8.4696 3.64892L2.2632 6.13052C1.95005 6.25518 1.65598 6.42322 1.3896 6.62972L19.2 13.7553V13.7529ZM0.0840008 8.69612C0.0280169 8.95072 -0.000148453 9.21064 5.88399e-07 9.47132V27.8217C-0.000119615 28.5414 0.215438 29.2445 0.618852 29.8404C1.02227 30.4364 1.59502 30.8977 2.2632 31.1649L16.08 36.6921C16.704 36.9417 17.3472 37.1121 18 37.2057V15.8601L0.0840008 8.69372V8.69612ZM20.4 37.2081C21.0581 37.1135 21.7026 36.9411 22.32 36.6945L36.1368 31.1673C36.8054 30.8999 37.3784 30.4382 37.7818 29.8418C38.1853 29.2454 38.4006 28.5418 38.4 27.8217V9.47132C38.4 9.20732 38.3712 8.94572 38.316 8.69372L20.4 15.8601V37.2057V37.2081ZM37.0104 6.63212L29.7 9.55772L11.7 2.35772L16.08 0.600923C18.0828 -0.200308 20.3172 -0.200308 22.32 0.600923L36.1368 6.12812C36.4499 6.25281 36.744 6.42085 37.0104 6.62732V6.63212Z" fill="#51A6B1"/>
</svg>
