<svg width="54" height="36" viewBox="0 0 54 36" fill="none" xmlns="http://www.w3.org/2000/svg">
<path d="M53.737 31.7503L40.6317 1.75031C40.1657 0.683437 39.1504 0 38.0329 0H28.8839L29.1136 2.17125C29.1604 2.61375 28.8126 3 28.3673 3H25.6336C25.1882 3 24.8404 2.61375 24.8873 2.17125L25.117 0H15.9679C14.8495 0 13.8342 0.683437 13.3682 1.75031L0.262927 31.7503C-0.604261 33.7369 0.77949 36 2.86355 36H21.3173L22.2839 26.8425C22.3645 26.0794 23.0076 25.5 23.7754 25.5H30.2254C30.9932 25.5 31.6364 26.0794 31.717 26.8425L32.6836 36H51.1373C53.2214 36 54.6051 33.7369 53.737 31.7503ZM24.4129 6.67125C24.4324 6.48693 24.5194 6.31634 24.6572 6.19239C24.795 6.06844 24.9738 5.9999 25.1592 6H28.8426C29.2261 6 29.5485 6.28969 29.5889 6.67125L30.0201 10.7569C30.0904 11.4216 29.5692 12 28.9017 12H25.1011C24.4326 12 23.9123 11.4216 23.9826 10.7569L24.4129 6.67125ZM29.5917 22.5H24.4082C23.5176 22.5 22.8229 21.7284 22.9167 20.8425L23.392 16.3425C23.4726 15.5794 24.1157 15 24.8836 15H29.1164C29.8842 15 30.5273 15.5794 30.6079 16.3425L31.0832 20.8425C31.177 21.7284 30.4823 22.5 29.5917 22.5Z" fill="#3C8EED"/>
</svg>
