<svg width="41" height="43" viewBox="0 0 41 43" fill="none" xmlns="http://www.w3.org/2000/svg">
<path d="M38.1984 17.8594L40.2797 19.9406C41.1609 20.8219 41.1609 22.2469 40.2797 23.1187L22.0641 41.3437C21.1828 42.225 19.7578 42.225 18.8859 41.3437L0.660937 23.1187C-0.220312 22.2375 -0.220312 20.8125 0.660937 19.9406L2.74219 17.8594C3.63281 16.9687 5.08594 16.9875 5.95781 17.8969L16.7203 29.1937V2.25C16.7203 1.00312 17.7234 0 18.9703 0H21.9703C23.2172 0 24.2203 1.00312 24.2203 2.25V29.1937L34.9828 17.8969C35.8547 16.9781 37.3078 16.9594 38.1984 17.8594Z" fill="#FFBA51"/>
</svg>
