<svg width="54" height="53" viewBox="0 0 54 53" fill="none" xmlns="http://www.w3.org/2000/svg">
<ellipse cx="27" cy="26.5" rx="27" ry="26.5" fill="#F3F3F3"/>
<path d="M26.4981 16C29.7838 16 32.4697 18.5691 32.4697 21.712C32.4697 24.8549 29.7838 27.4241 26.4981 27.4241C23.2123 27.4241 20.5264 24.8549 20.5264 21.712C20.5264 18.5691 23.2123 16 26.4981 16Z" fill="#D1D1D1"/>
<path d="M16.2501 31.989C16.4066 31.6149 16.6152 31.2657 16.8499 30.9414C18.0495 29.2452 19.9009 28.1228 21.9871 27.8484C22.2478 27.8235 22.5347 27.8733 22.7433 28.023C23.8386 28.7962 25.1424 29.1953 26.4984 29.1953C27.8545 29.1953 29.1583 28.7962 30.2536 28.023C30.4622 27.8733 30.749 27.7985 31.0098 27.8484C33.096 28.1228 34.9735 29.2452 36.147 30.9414C36.3816 31.2657 36.5903 31.6398 36.7467 31.989C36.8249 32.1387 36.7989 32.3133 36.7207 32.463C36.512 32.8122 36.2513 33.1614 36.0166 33.4607C35.6515 33.9346 35.2603 34.3586 34.817 34.7577C34.452 35.1069 34.0347 35.4312 33.6175 35.7555C31.5574 37.2271 29.08 38.0003 26.5245 38.0003C23.9689 38.0003 21.4916 37.2271 19.4315 35.7555C19.0143 35.4562 18.5971 35.1069 18.232 34.7577C17.8147 34.3586 17.3975 33.9346 17.0324 33.4607C16.7716 33.1364 16.5369 32.8122 16.3283 32.463C16.198 32.3133 16.1719 32.1386 16.2501 31.989Z" fill="#D1D1D1"/>
</svg>
