<svg width="32" height="32" viewBox="0 0 32 32" fill="none" xmlns="http://www.w3.org/2000/svg">
<path d="M16.0001 0C9.0134 0 3.09341 4.48 0.906738 10.6667H31.0934C28.9067 4.48 22.9867 0 16.0001 0Z" fill="#428BC1"/>
<path d="M16.0001 32C22.9867 32 28.9067 27.5733 31.0934 21.3333H0.906738C3.09341 27.5733 9.0134 32 16.0001 32Z" fill="#83BF4F"/>
<path d="M0.906667 10.6667C0.32 12.32 0 14.1333 0 16C0 17.8667 0.32 19.68 0.906667 21.3333H31.0933C31.68 19.68 32 17.8667 32 16C32 14.1333 31.68 12.32 31.0933 10.6667H0.906667Z" fill="#ED4C5C"/>
<path d="M15.7866 20.3733C13.3866 20.3733 11.4132 18.4 11.4132 16C11.4132 13.6 13.3866 11.6267 15.7866 11.6267C16.3732 11.6267 16.9066 11.7333 17.3866 11.9467C16.5332 11.3067 15.4666 10.88 14.2932 10.88C11.4666 10.88 9.22656 13.1733 9.22656 16C9.22656 18.8267 11.5199 21.12 14.2932 21.12C15.4666 21.12 16.5332 20.7467 17.3866 20.0533C16.9066 20.2667 16.3732 20.3733 15.7866 20.3733Z" fill="white"/>
<path d="M20.4798 16.7467L19.3065 17.5467L20.0532 16.32L18.6665 16L20.0532 15.68L19.2532 14.5067L20.4798 15.2533L20.7998 13.8667L21.1198 15.2533L22.2932 14.4533L21.5465 15.68L22.9332 16L21.5465 16.32L22.3465 17.4933L21.1198 16.7467L20.7998 18.1333L20.4798 16.7467Z" fill="white"/>
</svg>
