<svg width="22" height="24" viewBox="0 0 22 24" fill="none" xmlns="http://www.w3.org/2000/svg">
<path d="M4.79999 10.8H7.19999V13.2H4.79999V10.8ZM4.79999 15.6H7.19999V18H4.79999V15.6ZM9.59999 10.8H12V13.2H9.59999V10.8ZM9.59999 15.6H12V18H9.59999V15.6ZM14.4 10.8H16.8V13.2H14.4V10.8ZM14.4 15.6H16.8V18H14.4V15.6Z" fill="#bc0808"/>
<path d="M2.4 24H19.2C20.5236 24 21.6 22.9236 21.6 21.6V4.8C21.6 3.4764 20.5236 2.4 19.2 2.4H16.8V0H14.4V2.4H7.2V0H4.8V2.4H2.4C1.0764 2.4 0 3.4764 0 4.8V21.6C0 22.9236 1.0764 24 2.4 24ZM19.2 7.2L19.2012 21.6H2.4V7.2H19.2Z" fill="#bc0808"/>
</svg>
