<svg xmlns="http://www.w3.org/2000/svg" viewBox="0 0 646.58831 128.51"><g id="Layer_2" data-name="Layer 2"><g id="Layer_1-2" data-name="Layer 1"><path d="M.01,0c13.31,9.41,26.9,18.49,40.01,28.15q0,36.18.01,72.37C26.69,109.85,13.31,119.14,0,128.51Q.045,64.25.01,0Z" fill="#253662"/><path d="M526.78,10.87c5.5-1.5,10.9-3.35,16.47-4.6-.14,7.42-.05,14.84-.06,22.26,5.45.04,10.91.03,16.37.01-.52,2.57-1.03,5.14-1.56,7.7-5,0-10-.02-14.99.03.05,19.59-.05,39.18.04,58.77.24,3.6.32,8.33,3.94,10.3,4.99,2.14,10.28-1.09,13.35-4.96-.07,3.32-.07,6.65-.01,9.97a28.43474,28.43474,0,0,1-20.08,4.86c-4.01-.46-8.09-2.42-10.15-6.02-2.94-5.16-3.41-11.27-3.45-17.08-.03-18.62,0-37.24-.02-55.86q-3.915-.015-7.83,0,.96-3.855,1.89-7.71c2.02.01,4.04,0,6.08.01C526.79,22.65,526.78,16.76,526.78,10.87Z" fill="#253662"/><path d="M146.6,12.76c17.57,1.13,35.2-3.97,52.68-.48,12.23,1.9,24.02,8.54,30.68,19.17,6.43,9.89,7.35,22.21,6.26,33.67-1.01,11.85-4.88,23.92-13.24,32.66-7.36,7.77-17.43,12.55-27.84,14.63-16.49,3.75-33.46,1.4-50.17,1.6a17.95357,17.95357,0,0,0,5.49-13.84q-.015-36.99-.01-74A23.09686,23.09686,0,0,0,146.6,12.76Zm28.14,6.09c-2.68.39-6.04,1.96-5.74,5.2q-.045,38.55-.01,77.1c-.17,2.16.74,4.64,2.99,5.31,11.21,2.75,24.25.37,32.48-8.14,7.41-7.47,11.03-17.87,12.18-28.16,1.07-10.01,1.13-20.45-2.3-30.05A32.06448,32.06448,0,0,0,202.11,24.2C194.08,19.06,184.08,17.59,174.74,18.85Z" fill="#253662"/><path d="M318.43,12.64q32.085.045,64.17.01c.04,6.26-.07,12.52.08,18.78-3.24-6.53-10.27-10.15-17.31-10.77-7.96-.68-15.95-.23-23.92-.34,0,11.99-.03,23.99.02,35.98,8.06-.42,16.44,1.08,24.26-1.46a18.838,18.838,0,0,0,8.4-6.46c-.17,7.85-.07,15.71-.06,23.56-3.15-3.44-6.8-7.05-11.71-7.49-6.94-.68-13.95-.19-20.91-.31,0,11.66-.02,23.32.01,34.98-.27,5.36.75,11.03,4.77,14.9-9.49-.03-18.98-.07-28.47.02a18.444,18.444,0,0,0,5.16-13.03q.15-37.47.17-74.94A19.48669,19.48669,0,0,0,318.43,12.64Z" fill="#253662"/><path d="M454.26,40.15a42.90909,42.90909,0,0,1,27.9-13.54c11.49-1.16,23.04,1.47,33.58,5.96q0,10.29.01,20.58c-4.47-7.12-9.94-14.07-17.78-17.64-9.22-4.25-21.37-2.78-28.43,4.84-6.31,6.58-8.58,15.92-9.14,24.77-.69,10.83.78,22.46,7.38,31.42a26.5096,26.5096,0,0,0,23.37,10.9c11.71-.61,22-7.6,29.66-16.05-1.14,4.61-2.38,9.2-3.48,13.83a50.29066,50.29066,0,0,1-42.66,10.24,41.09637,41.09637,0,0,1-21.66-13.2c-8.21-8.84-11.57-21.34-10.72-33.2A44.882,44.882,0,0,1,454.26,40.15Z" fill="#253662"/><path d="M592.77,26.85c9.16-1.19,18.78-.43,27.24,3.49,12.79,5.8,22.96,17.7,25.68,31.6,2.1,10.96.59,22.84-5.29,32.45-5.12,8.38-12.86,15.4-22.19,18.7a55.1743,55.1743,0,0,1-31.07,1.65c-13.51-3.15-25.58-12.72-31.17-25.49-4.3-10.47-4.3-22.52-.78-33.21C560.64,40.07,576.23,28.79,592.77,26.85Zm-1.04,7.04c-7.74,2.17-13.92,8.33-17.2,15.54-4.27,9.24-4.6,19.82-3.23,29.76,1.54,10.8,6.98,21.52,16.36,27.49,10.32,6.41,24.86,3.63,32.69-5.47,7.65-8.67,9.05-20.98,8.04-32.07-1.04-11.7-5.37-23.85-14.69-31.49C607.63,32.67,599.12,31.93,591.73,33.89Z" fill="#253662"/><path d="M246.15,43.01c13.04-17.4,40.55-21.92,58.16-8.99a33.0153,33.0153,0,0,1,13.73,26.71q-31.365.015-62.73,0c-1.23,11.05-1.02,22.98,4.59,32.91a26.05811,26.05811,0,0,0,18.82,13.13c13.65,2.15,27.5-4.64,36.21-14.95-1.15,4.5-1.73,9.18-3.26,13.58-14.71,12.4-37.1,14.46-53.97,5.34-10.27-5.99-17.39-16.78-19.56-28.4C235.59,68.91,237.51,53.98,246.15,43.01Zm22.09-6.82c-6.44,4.02-9.63,11.36-11.89,18.29,12.65-.01,25.3.07,37.95-.03a4.93807,4.93807,0,0,0,5.02-5.3c.66-7.22-5.09-13.61-11.91-15.14C281.07,32.65,273.91,32.68,268.24,36.19Z" fill="#253662"/><path d="M381.86,35.16c11.98-5.84,25.41-9.73,38.84-7.75,5.81.73,12.14,2.5,15.84,7.39,3.79,5.27,3.86,12.06,3.76,18.28.04,16.35-.1,32.7.06,49.05a16.65446,16.65446,0,0,0,4.37,11.91c-6.52-.08-13.04-.02-19.56-.05-.22-3.3-.43-6.6-.6-9.9-7.38,7.48-17.64,12.53-28.3,12.07-7.45-.13-15.2-3.4-19.34-9.81-4.69-6.97-3.93-17.39,2.49-23.05,4.43-3.78,9.64-6.52,14.79-9.2,9.88-4.82,19.71-9.76,29.59-14.57-.49-7.14,1.38-15.01-2.46-21.49-3.3-5.06-10.35-5.12-15.57-3.61-10.43,3.24-17.73,12.02-23.92,20.54C381.88,48.37,381.87,41.76,381.86,35.16Zm17.09,45.57c-3.51,2.54-6.51,6.15-7.36,10.5a11.309,11.309,0,0,0,3.25,10.28c5.63,5.93,15.57,5.72,22.02,1.3,4.82-3.24,6.8-9.22,7-14.78.18-6.79.05-13.57.07-20.35C415.54,71.89,406.55,75.1,398.95,80.73Z" fill="#253662"/></g></g></svg>