<svg width="18" height="18" viewBox="0 0 18 18" fill="none" xmlns="http://www.w3.org/2000/svg">
<path fill-rule="evenodd" clip-rule="evenodd" d="M16.7381 1.49188H10.4069V0L0 1.60625V15.6856L10.4069 17.4781V15.2669H16.7381C16.9299 15.2766 17.1177 15.21 17.2604 15.0816C17.4032 14.9532 17.4893 14.7736 17.5 14.5819V2.17625C17.4892 1.98466 17.403 1.80515 17.2602 1.67691C17.1175 1.54868 16.9298 1.48216 16.7381 1.49188ZM16.8381 14.6956H10.3856L10.375 13.515H11.9294V12.14H10.3631L10.3556 11.3275H11.9294V9.9525H10.3438L10.3363 9.14H11.9294V7.765H10.3313V6.9525H11.9294V5.5775H10.3313V4.765H11.9294V3.39H10.3313V2.14H16.8381V14.6956Z" fill="#20744A"/>
<path d="M12.8047 3.38867H15.5066V4.76367H12.8047V3.38867ZM12.8047 5.5768H15.5066V6.9518H12.8047V5.5768ZM12.8047 7.76492H15.5066V9.13992H12.8047V7.76492ZM12.8047 9.95305H15.5066V11.328H12.8047V9.95305ZM12.8047 12.1412H15.5066V13.5162H12.8047V12.1412Z" fill="#20744A"/>
<path fill-rule="evenodd" clip-rule="evenodd" d="M2.71656 5.41051L4.05781 5.33363L4.90094 7.65176L5.89719 5.23801L7.23844 5.16113L5.60969 8.45238L7.23844 11.7518L5.82031 11.6561L4.86281 9.14113L3.90469 11.5605L2.60156 11.4455L4.11531 8.53113L2.71656 5.41051Z" fill="white"/>
</svg>
