<svg width="32" height="32" viewBox="0 0 32 32" fill="none" xmlns="http://www.w3.org/2000/svg">
<path d="M19.1998 0.319977H12.7998C6.55982 1.59998 1.59982 6.50664 0.319824 12.8V19.2C1.59982 25.4933 6.55982 30.4 12.7998 31.68H19.1998C25.4932 30.4 30.3998 25.44 31.6798 19.2V12.8C30.3998 6.50664 25.4398 1.59998 19.1998 0.319977Z" fill="#F9F9F9"/>
<path d="M19.2 12.8V0.32C18.1867 0.106667 17.12 0 16 0C14.88 0 13.8133 0.106667 12.8 0.32V12.8H0.32C0.106667 13.8133 0 14.88 0 16C0 17.12 0.106667 18.1867 0.32 19.2H12.8V31.68C13.8133 31.8933 14.88 32 16 32C17.12 32 18.1867 31.8933 19.2 31.68V19.2H31.68C31.8933 18.1867 32 17.12 32 16C32 14.88 31.8933 13.8133 31.68 12.8H19.2Z" fill="#ED4C5C"/>
<path d="M8.53324 9.60001H6.3999L6.93324 6.40001L6.3999 3.20001H8.53324L7.9999 6.40001L8.53324 9.60001Z" fill="#ED4C5C"/>
<path d="M4.2666 7.46668V5.33334L7.4666 5.86668L10.6666 5.33334V7.46668L7.4666 6.93334L4.2666 7.46668Z" fill="#ED4C5C"/>
<path d="M25.6001 9.60001H23.4668L24.0001 6.40001L23.4668 3.20001H25.6001L25.0668 6.40001L25.6001 9.60001Z" fill="#ED4C5C"/>
<path d="M21.3335 7.46668V5.33334L24.5335 5.86668L27.7335 5.33334V7.46668L24.5335 6.93334L21.3335 7.46668Z" fill="#ED4C5C"/>
<path d="M8.53324 28.8H6.3999C6.3999 28.8 6.93324 26.4 6.93324 25.6C6.93324 24.8 6.3999 22.4 6.3999 22.4H8.53324C8.53324 22.4 7.9999 24.8 7.9999 25.6C7.9999 26.4 8.53324 28.8 8.53324 28.8Z" fill="#ED4C5C"/>
<path d="M4.2666 26.6667V24.5333L7.4666 25.0667L10.6666 24.5333V26.6667L7.4666 26.1333L4.2666 26.6667Z" fill="#ED4C5C"/>
<path d="M25.6001 28.8H23.4668L24.0001 25.6L23.4668 22.4H25.6001L25.0668 25.6L25.6001 28.8Z" fill="#ED4C5C"/>
<path d="M21.3335 26.6667V24.5333L24.5335 25.0667L27.7335 24.5333V26.6667L24.5335 26.1333L21.3335 26.6667Z" fill="#ED4C5C"/>
</svg>
