<svg width="95" height="80" viewBox="0 0 95 80" fill="none" xmlns="http://www.w3.org/2000/svg">
<path d="M38.4995 38.2626L41.5795 44.8964L51.5301 36.6041L49.3978 31.8658L38.4995 38.2626Z" fill="#AA5F0C"/>
<path d="M48.687 60.5332H62.1916L51.5301 36.6041L41.5795 44.8964L48.687 60.5332Z" fill="#FE8A00"/>
<path d="M46.6733 25.5874L38.0642 5.65067C37.7521 4.92345 37.3551 4.23568 36.8815 3.60167C32.7463 -1.90705 28.9507 -0.00274993 26.7156 2.14738C25.6143 3.22156 24.7334 4.50051 24.1223 5.9124L0 60.6516L13.386 60.77C20.6836 51.7696 29.6047 44.4238 38.835 38.4762C65.5643 21.2531 94.8865 15.7552 94.8865 15.7552C72.1422 16.7029 46.6733 25.5874 46.6733 25.5874ZM25.1135 34.1165L31.0365 21.0859L34.9457 29.0227C34.9457 29.0227 29.3781 31.0365 25.1135 34.1165Z" fill="#FE8A00"/>
<path d="M67.5323 18.3638V9.12397C67.5323 9.12397 67.7693 4.62248 72.5077 3.6748H79.8522V15.7577C79.8522 15.7577 73.6923 15.9946 67.5323 18.3638Z" fill="white"/>
<path d="M67.7693 26.893C67.7693 26.893 73.6923 22.8654 80.0891 21.4438V53.9019C80.0891 53.9019 80.563 59.1141 75.3507 60.5357H67.5323L67.7693 26.893Z" fill="white"/>
<path d="M16.223 79.2567C15.1993 79.7523 13.8626 80.0001 12.2129 80.0001C10.0611 80.0001 8.36899 79.3676 7.13658 78.1026C5.90425 76.8377 5.28809 75.1521 5.28809 73.0459C5.28809 70.8029 5.98087 68.9837 7.36645 67.5882C8.75198 66.193 10.55 65.4953 12.7606 65.4951C14.1299 65.4951 15.284 65.6679 16.223 66.0135V69.0553C15.2511 68.4858 14.1412 68.1948 13.0149 68.2142C11.6977 68.2142 10.6349 68.6283 9.82631 69.4564C9.01771 70.2846 8.61346 71.4061 8.61353 72.821C8.61353 74.1773 8.995 75.2581 9.75792 76.0633C10.5208 76.8687 11.5478 77.2714 12.8389 77.2712C14.0275 77.2829 15.1971 76.972 16.223 76.3715L16.223 79.2567Z" fill="white"/>
<path d="M31.0018 79.7555H27.559L26.5614 76.6355H21.5732L20.5853 79.7555H17.162L22.2675 65.7299H26.0136L31.0018 79.7555ZM25.8376 74.2098L24.3314 69.4955C24.2092 69.0843 24.1305 68.6614 24.0966 68.2338H24.0184C23.9847 68.6494 23.9026 69.0597 23.7739 69.4564L22.248 74.2098H25.8376Z" fill="white"/>
<path d="M44.5188 79.7555H40.8901L38.7091 76.1464C38.546 75.8726 38.3895 75.6281 38.2396 75.4129C38.1045 75.2157 37.9523 75.0308 37.7848 74.8603C37.6455 74.7173 37.4836 74.5983 37.3055 74.5082C37.1365 74.426 36.9506 74.3841 36.7627 74.3858H35.9117V79.7555H32.7526V65.7299H37.7603C41.164 65.7299 42.8659 67.0013 42.8659 69.5443C42.8706 70.0055 42.7944 70.464 42.6409 70.899C42.4949 71.306 42.2798 71.6849 42.0052 72.0189C41.7236 72.3582 41.3883 72.6489 41.0125 72.8796C40.6088 73.1277 40.1726 73.3187 39.7164 73.4469V73.486C39.9353 73.5566 40.1404 73.6641 40.3229 73.8039C40.5267 73.9581 40.7165 74.1299 40.8901 74.3174C41.0764 74.5175 41.2511 74.7281 41.4134 74.9482C41.5797 75.1732 41.7313 75.3932 41.8682 75.6084L44.5188 79.7555ZM35.9117 68.0967V71.9994H37.2811C37.9591 71.9994 38.5036 71.8037 38.9145 71.4125C39.1171 71.2244 39.2777 70.9956 39.3856 70.7411C39.4935 70.4865 39.5463 70.212 39.5405 69.9356C39.5405 68.7098 38.8069 68.0968 37.3397 68.0967H35.9117Z" fill="white"/>
<path d="M57.3415 78.8166C55.9721 79.6056 54.2703 80.0001 52.2361 80.0001C49.9799 80.0001 48.2014 79.3757 46.9005 78.1271C45.5997 76.8785 44.9493 75.1586 44.9492 72.9677C44.9492 70.7638 45.66 68.9674 47.0814 67.5784C48.5028 66.1896 50.3938 65.4952 52.7543 65.4951C54.241 65.4951 55.5516 65.7005 56.6862 66.1113V69.0749C55.6038 68.4489 54.2802 68.1359 52.7152 68.136C51.4047 68.136 50.3369 68.5615 49.512 69.4124C48.687 70.2633 48.2746 71.3995 48.2748 72.821C48.2748 74.2621 48.6448 75.3771 49.3849 76.1659C50.1248 76.955 51.1241 77.3495 52.3827 77.3495C53.1389 77.3495 53.7389 77.2419 54.1824 77.0267V74.2881H51.3752V71.7646H57.3415V78.8166Z" fill="#FE8A00"/>
<path d="M65.9975 80.0001C63.9891 80.0001 62.3524 79.3464 61.0875 78.039C59.8224 76.7317 59.1899 75.0282 59.1901 72.9286C59.1901 70.7116 59.8323 68.9185 61.1169 67.5491C62.4014 66.1798 64.1033 65.4951 66.2225 65.4951C68.2241 65.4951 69.8429 66.1504 71.0787 67.4611C72.3143 68.7717 72.9321 70.4997 72.9321 72.645C72.9321 74.8489 72.2915 76.6257 71.0102 77.9754C69.7289 79.3252 68.058 80.0001 65.9975 80.0001ZM66.1344 68.2142C65.0259 68.2142 64.1456 68.6299 63.4936 69.4612C62.8415 70.2926 62.5154 71.393 62.5155 72.7623C62.5155 74.1512 62.8415 75.2499 63.4936 76.0585C63.7954 76.4478 64.1847 76.7605 64.6299 76.9712C65.0751 77.1819 65.5638 77.2847 66.0562 77.2712C67.1451 77.2712 68.0091 76.8784 68.6481 76.0926C69.2871 75.307 69.6066 74.2164 69.6067 72.8209C69.6067 71.367 69.297 70.2357 68.6775 69.427C68.0579 68.6185 67.2102 68.2143 66.1344 68.2142Z" fill="#FE8A00"/>
</svg>
