<svg width="72" height="60" viewBox="0 0 72 60" fill="none" xmlns="http://www.w3.org/2000/svg">
<path d="M28.8746 28.6969L31.1846 33.6723L38.6476 27.4531L37.0484 23.8994L28.8746 28.6969Z" fill="#AA5F0C"/>
<path d="M36.5152 45.3998H46.6437L38.6476 27.4531L31.1846 33.6723L36.5152 45.3998Z" fill="#FE8A00"/>
<path d="M35.0049 19.1905L28.5482 4.238C28.3141 3.69259 28.0163 3.17676 27.6611 2.70125C24.5597 -1.43029 21.713 -0.00206245 20.0367 1.61053C19.2107 2.41617 18.55 3.37539 18.0917 4.4343L0 45.4887L10.0395 45.5775C15.5127 38.8272 22.2035 33.3178 29.1263 28.8572C49.1732 15.9398 71.1649 11.8164 71.1649 11.8164C54.1066 12.5271 35.0049 19.1905 35.0049 19.1905ZM18.8351 25.5874L23.2774 15.8144L26.2093 21.767C26.2093 21.767 22.0336 23.2774 18.8351 25.5874Z" fill="#FE8A00"/>
<path d="M50.6493 13.7729V6.84294C50.6493 6.84294 50.827 3.46683 54.3808 2.75607H59.8892V11.8183C59.8892 11.8183 55.2692 11.996 50.6493 13.7729Z" fill="black"/>
<path d="M50.827 20.1697C50.827 20.1697 55.2692 17.149 60.0669 16.0828V40.4264C60.0669 40.4264 60.4223 44.3355 56.5131 45.4017H50.6493L50.827 20.1697Z" fill="black"/>
<path d="M12.1672 59.4425C11.3994 59.8142 10.3969 60 9.15964 60C7.54581 60 6.27674 59.5256 5.35244 58.5769C4.42819 57.6282 3.96607 56.364 3.96606 54.7844C3.96606 53.1021 4.48565 51.7377 5.52483 50.6911C6.56398 49.6447 7.91253 49.1214 9.57048 49.1213C10.5974 49.1213 11.463 49.2509 12.1672 49.5101V51.7914C11.4383 51.3643 10.6059 51.146 9.76115 51.1606C8.77329 51.1606 7.97615 51.4712 7.36973 52.0922C6.76328 52.7134 6.46009 53.5545 6.46015 54.6157C6.46015 55.6329 6.74625 56.4435 7.31844 57.0474C7.89061 57.6515 8.66084 57.9535 9.62915 57.9534C10.5206 57.9621 11.3978 57.7289 12.1672 57.2785L12.1672 59.4425Z" fill="black"/>
<path d="M23.2513 59.8166H20.6693L19.921 57.4766H16.1798L15.439 59.8166H12.8715L16.7006 49.2974H19.5102L23.2513 59.8166ZM19.3782 55.6573L18.2485 52.1216C18.1569 51.8132 18.0979 51.496 18.0724 51.1753H18.0138C17.9885 51.487 17.9269 51.7948 17.8304 52.0922L16.686 55.6573H19.3782Z" fill="black"/>
<path d="M33.3892 59.8166H30.6676L29.0318 57.1097C28.9095 56.9044 28.7922 56.721 28.6797 56.5596C28.5784 56.4118 28.4642 56.2731 28.3386 56.1452C28.2342 56.038 28.1127 55.9487 27.9792 55.8811C27.8524 55.8195 27.713 55.7881 27.572 55.7893H26.9338V59.8166H24.5645V49.2974H28.3203C30.873 49.2974 32.1494 50.251 32.1495 52.1582C32.153 52.5041 32.0959 52.848 31.9807 53.1742C31.8712 53.4795 31.7099 53.7636 31.504 54.0142C31.2927 54.2686 31.0412 54.4867 30.7594 54.6597C30.4566 54.8458 30.1295 54.989 29.7874 55.0852V55.1145C29.9515 55.1674 30.1053 55.248 30.2422 55.3529C30.3951 55.4685 30.5374 55.5974 30.6676 55.738C30.8073 55.8881 30.9384 56.0461 31.0601 56.2111C31.1848 56.3798 31.2985 56.5449 31.4012 56.7063L33.3892 59.8166ZM26.9338 51.0725V53.9995H27.9608C28.4694 53.9995 28.8777 53.8528 29.1859 53.5593C29.3379 53.4183 29.4583 53.2467 29.5392 53.0558C29.6201 52.8649 29.6597 52.659 29.6554 52.4517C29.6554 51.5323 29.1052 51.0726 28.0048 51.0725H26.9338Z" fill="black"/>
<path d="M43.0061 59.1124C41.9791 59.7041 40.7028 60 39.177 60C37.4849 60 36.151 59.5317 35.1754 58.5953C34.1998 57.6588 33.7119 56.3689 33.7119 54.7257C33.7119 53.0728 34.245 51.7255 35.3111 50.6837C36.3771 49.6422 37.7954 49.1213 39.5657 49.1213C40.6807 49.1213 41.6637 49.2753 42.5147 49.5834V51.8061C41.7029 51.3366 40.7101 51.1019 39.5364 51.1019C38.5535 51.1019 37.7527 51.421 37.134 52.0592C36.5152 52.6974 36.2059 53.5496 36.2061 54.6157C36.2061 55.6966 36.4836 56.5328 37.0386 57.1244C37.5936 57.7162 38.3431 58.0121 39.287 58.012C39.8542 58.012 40.3042 57.9313 40.6368 57.77V55.716H38.5314V53.8234H43.0061V59.1124Z" fill="#FE8A00"/>
<path d="M49.4982 60C47.9919 60 46.7644 59.5097 45.8157 58.5292C44.8668 57.5487 44.3925 56.2711 44.3926 54.6964C44.3926 53.0337 44.8743 51.6888 45.8377 50.6618C46.8011 49.6348 48.0775 49.1213 49.6669 49.1213C51.1681 49.1213 52.3822 49.6128 53.3091 50.5957C54.2357 51.5787 54.6991 52.8747 54.6991 54.4837C54.6991 56.1366 54.2186 57.4693 53.2577 58.4815C52.2967 59.4939 51.0436 60 49.4982 60ZM49.6008 51.1606C48.7694 51.1606 48.1092 51.4724 47.6202 52.0958C47.1311 52.7194 46.8866 53.5447 46.8867 54.5717C46.8867 55.6133 47.1312 56.4374 47.6202 57.0438C47.8466 57.3358 48.1385 57.5703 48.4724 57.7284C48.8064 57.8864 49.1729 57.9635 49.5422 57.9534C50.3589 57.9534 51.0069 57.6587 51.4861 57.0694C51.9653 56.4802 52.205 55.6622 52.205 54.6157C52.205 53.5252 51.9727 52.6767 51.5082 52.0702C51.0434 51.4638 50.4077 51.1606 49.6008 51.1606Z" fill="#FE8A00"/>
</svg>
