<svg width="25" height="20" viewBox="0 0 25 20" fill="none" xmlns="http://www.w3.org/2000/svg">
<path d="M4.0625 8.71899e-09H20.9375C21.9752 -6.79334e-05 22.9735 0.396942 23.7278 1.10959C24.482 1.82224 24.935 2.79649 24.9938 3.8325L25 4.0625V15.9375C25.0001 16.9752 24.6031 17.9735 23.8904 18.7278C23.1778 19.482 22.2035 19.935 21.1675 19.9938L20.9375 20H4.0625C3.02483 20.0001 2.02646 19.6031 1.27221 18.8904C0.517958 18.1778 0.0649983 17.2035 0.00625015 16.1675L8.71898e-09 15.9375V4.0625C-6.79334e-05 3.02483 0.396943 2.02646 1.10959 1.27221C1.82224 0.517959 2.79649 0.0649983 3.8325 0.00625015L4.0625 8.71899e-09H20.9375H4.0625ZM23.125 6.71625L12.9375 12.0788C12.8225 12.1395 12.696 12.1757 12.5663 12.1849C12.4365 12.1942 12.3062 12.1763 12.1837 12.1325L12.0638 12.08L1.875 6.7175V15.9375C1.87502 16.4865 2.08146 17.0154 2.45335 17.4192C2.82524 17.8231 3.33537 18.0723 3.8825 18.1175L4.0625 18.125H20.9375C21.4867 18.125 22.0158 17.9183 22.4196 17.5462C22.8235 17.174 23.0726 16.6636 23.1175 16.1162L23.125 15.9375V6.71625ZM20.9375 1.875H4.0625C3.51351 1.87502 2.9846 2.08146 2.58076 2.45335C2.17692 2.82524 1.92767 3.33537 1.8825 3.8825L1.875 4.0625V4.59875L12.5 10.19L23.125 4.5975V4.0625C23.125 3.51331 22.9183 2.98424 22.5462 2.58036C22.174 2.17649 21.6636 1.92738 21.1162 1.8825L20.9375 1.875Z" fill="#FE8A00"/>
</svg>
