<svg width="20" height="20" viewBox="0 0 20 20" fill="none" xmlns="http://www.w3.org/2000/svg">
<path d="M10 0C4.47733 0 0 4.47733 0 10.0003C0 15.5223 4.47733 20 10 20C15.5227 20 20 15.5223 20 10.0003C20 4.47733 15.5227 0 10 0ZM17.3333 10.0003C17.3333 11.5433 16.8557 12.9743 16.0413 14.1553L5.84433 3.95867C7.06588 3.1153 8.5156 2.66458 10 2.66667C14.05 2.66667 17.3333 5.95033 17.3333 10.0003ZM2.66667 10.0003C2.66475 8.51586 3.11545 7.06608 3.95867 5.84433L14.1557 16.0413C12.9342 16.8849 11.4844 17.3357 10 17.3337C5.95 17.3337 2.66667 14.0497 2.66667 10.0003Z" fill="#FF3838"/>
</svg>
