<svg width="21" height="20" viewBox="0 0 21 20" fill="none" xmlns="http://www.w3.org/2000/svg">
<path d="M17.6996 20H17.5689C2.45348 19.1308 0.307327 6.37692 0.00732679 2.48462C-0.0168461 2.18198 0.0189334 1.87756 0.112615 1.58878C0.206297 1.3 0.356039 1.03254 0.553263 0.801732C0.750487 0.570923 0.991316 0.381298 1.26195 0.243723C1.53258 0.106147 1.82771 0.0233245 2.1304 7.21224e-07H6.36887C6.67699 -0.000297558 6.9781 0.0919312 7.2332 0.264741C7.4883 0.43755 7.68563 0.682977 7.79963 0.969232L8.96887 3.84615C9.08144 4.12581 9.10938 4.43237 9.04921 4.72776C8.98904 5.02316 8.8434 5.29436 8.6304 5.50769L6.99194 7.16154C7.24788 8.61596 7.94439 9.95667 8.98725 11.0023C10.0301 12.0479 11.369 12.7479 12.8227 13.0077L14.4919 11.3538C14.7085 11.1432 14.9822 11.001 15.2791 10.9449C15.5759 10.8888 15.8827 10.9213 16.1612 11.0385L19.0612 12.2C19.3431 12.3176 19.5837 12.5165 19.7522 12.7713C19.9207 13.0261 20.0095 13.3253 20.0073 13.6308V17.6923C20.0073 18.3043 19.7642 18.8913 19.3314 19.3241C18.8986 19.7569 18.3117 20 17.6996 20ZM2.31502 1.53846C2.11101 1.53846 1.91535 1.61951 1.77109 1.76376C1.62683 1.90802 1.54579 2.10368 1.54579 2.30769V2.36923C1.89963 6.92308 4.16887 17.6923 17.6535 18.4615C17.7545 18.4678 17.8558 18.454 17.9516 18.421C18.0473 18.388 18.1356 18.3365 18.2113 18.2693C18.2871 18.2021 18.3488 18.1207 18.393 18.0296C18.4372 17.9385 18.463 17.8395 18.4689 17.7385V13.6308L15.5689 12.4692L13.3612 14.6615L12.9919 14.6154C6.29963 13.7769 5.39194 7.08462 5.39194 7.01539L5.34579 6.64615L7.5304 4.43846L6.37656 1.53846H2.31502Z" fill="#FE8A00"/>
</svg>
