<svg width="32" height="32" viewBox="0 0 32 32" fill="none" xmlns="http://www.w3.org/2000/svg">
<path d="M15.9466 0C9.01328 0 3.09328 4.48 0.906616 10.6667H31.0933C28.8533 4.48 22.9333 0 15.9466 0Z" fill="#F9F9F9"/>
<path d="M15.9466 32C22.9333 32 28.8533 27.52 31.0399 21.3333H0.906616C3.09328 27.5733 9.01328 32 15.9466 32Z" fill="#ED4C5C"/>
<path d="M0.906667 10.6667C0.32 12.32 0 14.1333 0 16C0 17.8667 0.32 19.68 0.906667 21.3333H31.0933C31.68 19.68 32 17.8667 32 16C32 14.1333 31.68 12.32 31.0933 10.6667H0.906667Z" fill="#428BC1"/>
</svg>
