<svg width="32" height="32" viewBox="0 0 32 32" fill="none" xmlns="http://www.w3.org/2000/svg">
<path d="M16 32C24.8366 32 32 24.8366 32 16C32 7.16344 24.8366 0 16 0C7.16344 0 0 7.16344 0 16C0 24.8366 7.16344 32 16 32Z" fill="#ED4C5C"/>
<path d="M20.96 19.7333L21.0133 16.8533L18.1333 16L21.0133 15.1467L20.96 12.2667L22.72 14.56L25.6 13.7067L23.84 16L25.6 18.2933L22.72 17.44L20.96 19.7333Z" fill="white"/>
<path d="M16.6399 22.4C13.1199 22.4 10.2932 19.52 10.2932 16C10.2932 12.48 13.1199 9.6 16.6399 9.6C17.9732 9.6 19.1999 10.0267 20.2666 10.72C18.8266 9.06667 16.6932 8 14.2932 8C9.9199 8 6.3999 11.5733 6.3999 16C6.3999 20.4267 9.9199 24 14.2932 24C16.6932 24 18.8266 22.9333 20.2666 21.28C19.2532 21.9733 18.0266 22.4 16.6399 22.4Z" fill="white"/>
</svg>
