<svg width="26" height="18" viewBox="0 0 26 18" fill="none" xmlns="http://www.w3.org/2000/svg">
<path d="M25.4556 2.72092C25.3084 2.19583 25.0216 1.72043 24.6259 1.34527C24.2189 0.95858 23.7201 0.681969 23.1765 0.541549C21.1423 0.00537129 12.9924 0.00537141 12.9924 0.00537141C9.59482 -0.0332847 6.19805 0.136734 2.82129 0.514469C2.27773 0.665263 1.77987 0.948055 1.37198 1.33769C0.971205 1.72331 0.68091 2.19883 0.529264 2.71984C0.16498 4.6823 -0.0120134 6.67493 0.000668525 8.67087C-0.0123297 10.665 0.16423 12.657 0.529264 14.6219C0.677661 15.1408 0.966872 15.6141 1.36873 15.9965C1.7706 16.3788 2.27103 16.655 2.82129 16.8013C4.8826 17.3364 12.9924 17.3364 12.9924 17.3364C16.3943 17.3751 19.7954 17.2051 23.1765 16.8273C23.7201 16.6869 24.2189 16.4102 24.6259 16.0236C25.0266 15.6412 25.3115 15.1657 25.4545 14.6479C25.8283 12.6862 26.01 10.6927 25.9972 8.69579C26.0253 6.69038 25.8438 4.68752 25.4556 2.71984V2.72092ZM10.4014 12.3797V4.96312L17.1822 8.67196L10.4014 12.3797Z" fill="white"/>
</svg>
